<mxfile host="65bd71144e">
    <diagram id="vt_qfFMzVC03O-iJHXwH" name="Page-1">
        <mxGraphModel dx="944" dy="510" grid="1" gridSize="10" guides="1" tooltips="1" connect="1" arrows="1" fold="1" page="1" pageScale="1" pageWidth="827" pageHeight="1169" math="0" shadow="0">
            <root>
                <mxCell id="0"/>
                <mxCell id="1" parent="0"/>
                <mxCell id="QHhGjYjgjHVPgyZm1Ans-104" value="" style="group" parent="1" vertex="1" connectable="0">
                    <mxGeometry x="120" y="630" width="660" height="410" as="geometry"/>
                </mxCell>
                <mxCell id="QHhGjYjgjHVPgyZm1Ans-54" value="instruments" style="swimlane;fontStyle=0;childLayout=stackLayout;horizontal=1;startSize=30;horizontalStack=0;resizeParent=1;resizeParentMax=0;resizeLast=0;collapsible=1;marginBottom=0;whiteSpace=wrap;html=1;" parent="QHhGjYjgjHVPgyZm1Ans-104" vertex="1">
                    <mxGeometry x="450" width="210" height="210" as="geometry"/>
                </mxCell>
                <mxCell id="QHhGjYjgjHVPgyZm1Ans-55" value="&lt;u&gt;id_instruments&lt;/u&gt;" style="text;strokeColor=none;fillColor=none;align=left;verticalAlign=middle;spacingLeft=4;spacingRight=4;overflow=hidden;points=[[0,0.5],[1,0.5]];portConstraint=eastwest;rotatable=0;whiteSpace=wrap;html=1;" parent="QHhGjYjgjHVPgyZm1Ans-54" vertex="1">
                    <mxGeometry y="30" width="210" height="30" as="geometry"/>
                </mxCell>
                <mxCell id="QHhGjYjgjHVPgyZm1Ans-56" value="&lt;span style=&quot;text-align: center;&quot;&gt;name&lt;/span&gt;" style="text;strokeColor=none;fillColor=none;align=left;verticalAlign=middle;spacingLeft=4;spacingRight=4;overflow=hidden;points=[[0,0.5],[1,0.5]];portConstraint=eastwest;rotatable=0;whiteSpace=wrap;html=1;" parent="QHhGjYjgjHVPgyZm1Ans-54" vertex="1">
                    <mxGeometry y="60" width="210" height="30" as="geometry"/>
                </mxCell>
                <mxCell id="QHhGjYjgjHVPgyZm1Ans-64" value="&lt;span style=&quot;text-align: center;&quot;&gt;description&lt;/span&gt;" style="text;strokeColor=none;fillColor=none;align=left;verticalAlign=middle;spacingLeft=4;spacingRight=4;overflow=hidden;points=[[0,0.5],[1,0.5]];portConstraint=eastwest;rotatable=0;whiteSpace=wrap;html=1;" parent="QHhGjYjgjHVPgyZm1Ans-54" vertex="1">
                    <mxGeometry y="90" width="210" height="30" as="geometry"/>
                </mxCell>
                <mxCell id="QHhGjYjgjHVPgyZm1Ans-66" value="&lt;span style=&quot;text-align: center;&quot;&gt;price&lt;/span&gt;" style="text;strokeColor=none;fillColor=none;align=left;verticalAlign=middle;spacingLeft=4;spacingRight=4;overflow=hidden;points=[[0,0.5],[1,0.5]];portConstraint=eastwest;rotatable=0;whiteSpace=wrap;html=1;" parent="QHhGjYjgjHVPgyZm1Ans-54" vertex="1">
                    <mxGeometry y="120" width="210" height="30" as="geometry"/>
                </mxCell>
                <mxCell id="QHhGjYjgjHVPgyZm1Ans-68" value="&lt;span style=&quot;text-align: center;&quot;&gt;quantity&lt;/span&gt;" style="text;strokeColor=none;fillColor=none;align=left;verticalAlign=middle;spacingLeft=4;spacingRight=4;overflow=hidden;points=[[0,0.5],[1,0.5]];portConstraint=eastwest;rotatable=0;whiteSpace=wrap;html=1;" parent="QHhGjYjgjHVPgyZm1Ans-54" vertex="1">
                    <mxGeometry y="150" width="210" height="30" as="geometry"/>
                </mxCell>
                <mxCell id="QHhGjYjgjHVPgyZm1Ans-57" value="&lt;span style=&quot;text-align: center;&quot;&gt;image&lt;/span&gt;" style="text;strokeColor=none;fillColor=none;align=left;verticalAlign=middle;spacingLeft=4;spacingRight=4;overflow=hidden;points=[[0,0.5],[1,0.5]];portConstraint=eastwest;rotatable=0;whiteSpace=wrap;html=1;" parent="QHhGjYjgjHVPgyZm1Ans-54" vertex="1">
                    <mxGeometry y="180" width="210" height="30" as="geometry"/>
                </mxCell>
                <mxCell id="QHhGjYjgjHVPgyZm1Ans-58" value="admins" style="swimlane;fontStyle=0;childLayout=stackLayout;horizontal=1;startSize=30;horizontalStack=0;resizeParent=1;resizeParentMax=0;resizeLast=0;collapsible=1;marginBottom=0;whiteSpace=wrap;html=1;" parent="QHhGjYjgjHVPgyZm1Ans-104" vertex="1">
                    <mxGeometry width="190" height="180" as="geometry"/>
                </mxCell>
                <mxCell id="QHhGjYjgjHVPgyZm1Ans-59" value="&lt;span style=&quot;text-align: center;&quot;&gt;&lt;u&gt;id_admin&lt;/u&gt;&lt;/span&gt;" style="text;strokeColor=none;fillColor=none;align=left;verticalAlign=middle;spacingLeft=4;spacingRight=4;overflow=hidden;points=[[0,0.5],[1,0.5]];portConstraint=eastwest;rotatable=0;whiteSpace=wrap;html=1;" parent="QHhGjYjgjHVPgyZm1Ans-58" vertex="1">
                    <mxGeometry y="30" width="190" height="30" as="geometry"/>
                </mxCell>
                <mxCell id="QHhGjYjgjHVPgyZm1Ans-60" value="&lt;span style=&quot;text-align: center;&quot;&gt;first_name&lt;/span&gt;" style="text;strokeColor=none;fillColor=none;align=left;verticalAlign=middle;spacingLeft=4;spacingRight=4;overflow=hidden;points=[[0,0.5],[1,0.5]];portConstraint=eastwest;rotatable=0;whiteSpace=wrap;html=1;" parent="QHhGjYjgjHVPgyZm1Ans-58" vertex="1">
                    <mxGeometry y="60" width="190" height="30" as="geometry"/>
                </mxCell>
                <mxCell id="QHhGjYjgjHVPgyZm1Ans-67" value="&lt;span style=&quot;text-align: center;&quot;&gt;last_name&lt;/span&gt;" style="text;strokeColor=none;fillColor=none;align=left;verticalAlign=middle;spacingLeft=4;spacingRight=4;overflow=hidden;points=[[0,0.5],[1,0.5]];portConstraint=eastwest;rotatable=0;whiteSpace=wrap;html=1;" parent="QHhGjYjgjHVPgyZm1Ans-58" vertex="1">
                    <mxGeometry y="90" width="190" height="30" as="geometry"/>
                </mxCell>
                <mxCell id="QHhGjYjgjHVPgyZm1Ans-65" value="&lt;span style=&quot;text-align: center;&quot;&gt;password&lt;/span&gt;" style="text;strokeColor=none;fillColor=none;align=left;verticalAlign=middle;spacingLeft=4;spacingRight=4;overflow=hidden;points=[[0,0.5],[1,0.5]];portConstraint=eastwest;rotatable=0;whiteSpace=wrap;html=1;" parent="QHhGjYjgjHVPgyZm1Ans-58" vertex="1">
                    <mxGeometry y="120" width="190" height="30" as="geometry"/>
                </mxCell>
                <mxCell id="QHhGjYjgjHVPgyZm1Ans-61" value="&lt;span style=&quot;text-align: center;&quot;&gt;image&lt;/span&gt;" style="text;strokeColor=none;fillColor=none;align=left;verticalAlign=middle;spacingLeft=4;spacingRight=4;overflow=hidden;points=[[0,0.5],[1,0.5]];portConstraint=eastwest;rotatable=0;whiteSpace=wrap;html=1;" parent="QHhGjYjgjHVPgyZm1Ans-58" vertex="1">
                    <mxGeometry y="150" width="190" height="30" as="geometry"/>
                </mxCell>
                <mxCell id="QHhGjYjgjHVPgyZm1Ans-69" style="edgeStyle=orthogonalEdgeStyle;shape=link;rounded=0;orthogonalLoop=1;jettySize=auto;html=1;entryX=0;entryY=0.5;entryDx=0;entryDy=0;startArrow=none;" parent="QHhGjYjgjHVPgyZm1Ans-104" source="QHhGjYjgjHVPgyZm1Ans-71" target="QHhGjYjgjHVPgyZm1Ans-64" edge="1">
                    <mxGeometry relative="1" as="geometry"/>
                </mxCell>
                <mxCell id="QHhGjYjgjHVPgyZm1Ans-71" value="gÃ©rer" style="rounded=1;whiteSpace=wrap;html=1;" parent="QHhGjYjgjHVPgyZm1Ans-104" vertex="1">
                    <mxGeometry x="262.5" y="82.5" width="105" height="45" as="geometry"/>
                </mxCell>
                <mxCell id="QHhGjYjgjHVPgyZm1Ans-72" value="" style="edgeStyle=orthogonalEdgeStyle;shape=link;rounded=0;orthogonalLoop=1;jettySize=auto;html=1;entryX=0;entryY=0.5;entryDx=0;entryDy=0;endArrow=none;" parent="QHhGjYjgjHVPgyZm1Ans-104" source="QHhGjYjgjHVPgyZm1Ans-67" target="QHhGjYjgjHVPgyZm1Ans-71" edge="1">
                    <mxGeometry relative="1" as="geometry">
                        <mxPoint x="190" y="105" as="sourcePoint"/>
                        <mxPoint x="450" y="105" as="targetPoint"/>
                    </mxGeometry>
                </mxCell>
                <mxCell id="QHhGjYjgjHVPgyZm1Ans-74" value="(0,n)" style="text;html=1;strokeColor=none;fillColor=none;align=center;verticalAlign=middle;whiteSpace=wrap;rounded=0;" parent="QHhGjYjgjHVPgyZm1Ans-104" vertex="1">
                    <mxGeometry x="180" y="75" width="60" height="30" as="geometry"/>
                </mxCell>
                <mxCell id="QHhGjYjgjHVPgyZm1Ans-75" value="(1,1)" style="text;html=1;strokeColor=none;fillColor=none;align=center;verticalAlign=middle;whiteSpace=wrap;rounded=0;" parent="QHhGjYjgjHVPgyZm1Ans-104" vertex="1">
                    <mxGeometry x="400" y="75" width="60" height="30" as="geometry"/>
                </mxCell>
                <mxCell id="QHhGjYjgjHVPgyZm1Ans-105" value="" style="group" parent="1" vertex="1" connectable="0">
                    <mxGeometry x="30" y="30" width="660" height="410" as="geometry"/>
                </mxCell>
                <mxCell id="QHhGjYjgjHVPgyZm1Ans-118" value="admins" style="swimlane;fontStyle=0;childLayout=stackLayout;horizontal=1;startSize=30;horizontalStack=0;resizeParent=1;resizeParentMax=0;resizeLast=0;collapsible=1;marginBottom=0;whiteSpace=wrap;html=1;" parent="QHhGjYjgjHVPgyZm1Ans-105" vertex="1">
                    <mxGeometry width="190" height="180" as="geometry"/>
                </mxCell>
                <mxCell id="QHhGjYjgjHVPgyZm1Ans-119" value="&lt;span style=&quot;text-align: center;&quot;&gt;&lt;u&gt;ID_ADMIN&lt;/u&gt;&lt;/span&gt;" style="text;strokeColor=none;fillColor=none;align=left;verticalAlign=middle;spacingLeft=4;spacingRight=4;overflow=hidden;points=[[0,0.5],[1,0.5]];portConstraint=eastwest;rotatable=0;whiteSpace=wrap;html=1;" parent="QHhGjYjgjHVPgyZm1Ans-118" vertex="1">
                    <mxGeometry y="30" width="190" height="30" as="geometry"/>
                </mxCell>
                <mxCell id="QHhGjYjgjHVPgyZm1Ans-120" value="&lt;span style=&quot;text-align: center;&quot;&gt;FIRST_NAME&lt;/span&gt;" style="text;strokeColor=none;fillColor=none;align=left;verticalAlign=middle;spacingLeft=4;spacingRight=4;overflow=hidden;points=[[0,0.5],[1,0.5]];portConstraint=eastwest;rotatable=0;whiteSpace=wrap;html=1;" parent="QHhGjYjgjHVPgyZm1Ans-118" vertex="1">
                    <mxGeometry y="60" width="190" height="30" as="geometry"/>
                </mxCell>
                <mxCell id="QHhGjYjgjHVPgyZm1Ans-121" value="&lt;span style=&quot;text-align: center;&quot;&gt;LAST_NAME&lt;/span&gt;" style="text;strokeColor=none;fillColor=none;align=left;verticalAlign=middle;spacingLeft=4;spacingRight=4;overflow=hidden;points=[[0,0.5],[1,0.5]];portConstraint=eastwest;rotatable=0;whiteSpace=wrap;html=1;" parent="QHhGjYjgjHVPgyZm1Ans-118" vertex="1">
                    <mxGeometry y="90" width="190" height="30" as="geometry"/>
                </mxCell>
                <mxCell id="QHhGjYjgjHVPgyZm1Ans-122" value="&lt;span style=&quot;text-align: center;&quot;&gt;PASSWORD&lt;/span&gt;" style="text;strokeColor=none;fillColor=none;align=left;verticalAlign=middle;spacingLeft=4;spacingRight=4;overflow=hidden;points=[[0,0.5],[1,0.5]];portConstraint=eastwest;rotatable=0;whiteSpace=wrap;html=1;" parent="QHhGjYjgjHVPgyZm1Ans-118" vertex="1">
                    <mxGeometry y="120" width="190" height="30" as="geometry"/>
                </mxCell>
                <mxCell id="QHhGjYjgjHVPgyZm1Ans-123" value="&lt;span style=&quot;text-align: center;&quot;&gt;IMAGE&lt;/span&gt;" style="text;strokeColor=none;fillColor=none;align=left;verticalAlign=middle;spacingLeft=4;spacingRight=4;overflow=hidden;points=[[0,0.5],[1,0.5]];portConstraint=eastwest;rotatable=0;whiteSpace=wrap;html=1;" parent="QHhGjYjgjHVPgyZm1Ans-118" vertex="1">
                    <mxGeometry y="150" width="190" height="30" as="geometry"/>
                </mxCell>
                <mxCell id="QHhGjYjgjHVPgyZm1Ans-111" value="instruments" style="swimlane;fontStyle=0;childLayout=stackLayout;horizontal=1;startSize=30;horizontalStack=0;resizeParent=1;resizeParentMax=0;resizeLast=0;collapsible=1;marginBottom=0;whiteSpace=wrap;html=1;" parent="1" vertex="1">
                    <mxGeometry x="590" y="30" width="210" height="240" as="geometry"/>
                </mxCell>
                <mxCell id="QHhGjYjgjHVPgyZm1Ans-112" value="&lt;u&gt;ID_INSTRUMENT&lt;/u&gt;" style="text;strokeColor=none;fillColor=none;align=left;verticalAlign=middle;spacingLeft=4;spacingRight=4;overflow=hidden;points=[[0,0.5],[1,0.5]];portConstraint=eastwest;rotatable=0;whiteSpace=wrap;html=1;" parent="QHhGjYjgjHVPgyZm1Ans-111" vertex="1">
                    <mxGeometry y="30" width="210" height="30" as="geometry"/>
                </mxCell>
                <mxCell id="QHhGjYjgjHVPgyZm1Ans-113" value="&lt;span style=&quot;text-align: center;&quot;&gt;NAME&lt;/span&gt;" style="text;strokeColor=none;fillColor=none;align=left;verticalAlign=middle;spacingLeft=4;spacingRight=4;overflow=hidden;points=[[0,0.5],[1,0.5]];portConstraint=eastwest;rotatable=0;whiteSpace=wrap;html=1;" parent="QHhGjYjgjHVPgyZm1Ans-111" vertex="1">
                    <mxGeometry y="60" width="210" height="30" as="geometry"/>
                </mxCell>
                <mxCell id="QHhGjYjgjHVPgyZm1Ans-114" value="&lt;span style=&quot;text-align: center;&quot;&gt;DESCRIPTION&lt;/span&gt;" style="text;strokeColor=none;fillColor=none;align=left;verticalAlign=middle;spacingLeft=4;spacingRight=4;overflow=hidden;points=[[0,0.5],[1,0.5]];portConstraint=eastwest;rotatable=0;whiteSpace=wrap;html=1;" parent="QHhGjYjgjHVPgyZm1Ans-111" vertex="1">
                    <mxGeometry y="90" width="210" height="30" as="geometry"/>
                </mxCell>
                <mxCell id="QHhGjYjgjHVPgyZm1Ans-115" value="&lt;span style=&quot;text-align: center;&quot;&gt;PRICE&lt;/span&gt;" style="text;strokeColor=none;fillColor=none;align=left;verticalAlign=middle;spacingLeft=4;spacingRight=4;overflow=hidden;points=[[0,0.5],[1,0.5]];portConstraint=eastwest;rotatable=0;whiteSpace=wrap;html=1;" parent="QHhGjYjgjHVPgyZm1Ans-111" vertex="1">
                    <mxGeometry y="120" width="210" height="30" as="geometry"/>
                </mxCell>
                <mxCell id="QHhGjYjgjHVPgyZm1Ans-116" value="&lt;span style=&quot;text-align: center;&quot;&gt;QUANTITY&lt;/span&gt;" style="text;strokeColor=none;fillColor=none;align=left;verticalAlign=middle;spacingLeft=4;spacingRight=4;overflow=hidden;points=[[0,0.5],[1,0.5]];portConstraint=eastwest;rotatable=0;whiteSpace=wrap;html=1;" parent="QHhGjYjgjHVPgyZm1Ans-111" vertex="1">
                    <mxGeometry y="150" width="210" height="30" as="geometry"/>
                </mxCell>
                <mxCell id="QHhGjYjgjHVPgyZm1Ans-117" value="&lt;span style=&quot;text-align: center;&quot;&gt;IMAGE&lt;/span&gt;" style="text;strokeColor=none;fillColor=none;align=left;verticalAlign=middle;spacingLeft=4;spacingRight=4;overflow=hidden;points=[[0,0.5],[1,0.5]];portConstraint=eastwest;rotatable=0;whiteSpace=wrap;html=1;" parent="QHhGjYjgjHVPgyZm1Ans-111" vertex="1">
                    <mxGeometry y="180" width="210" height="30" as="geometry"/>
                </mxCell>
                <mxCell id="26" value="&lt;span style=&quot;text-align: center&quot;&gt;#ID_ADMIN&lt;/span&gt;" style="text;strokeColor=none;fillColor=none;align=left;verticalAlign=middle;spacingLeft=4;spacingRight=4;overflow=hidden;points=[[0,0.5],[1,0.5]];portConstraint=eastwest;rotatable=0;whiteSpace=wrap;html=1;" vertex="1" parent="QHhGjYjgjHVPgyZm1Ans-111">
                    <mxGeometry y="210" width="210" height="30" as="geometry"/>
                </mxCell>
                <mxCell id="27" style="edgeStyle=none;html=1;exitX=0;exitY=0.5;exitDx=0;exitDy=0;entryX=1;entryY=0.5;entryDx=0;entryDy=0;" edge="1" parent="1" source="26" target="QHhGjYjgjHVPgyZm1Ans-119">
                    <mxGeometry relative="1" as="geometry">
                        <Array as="points">
                            <mxPoint x="360" y="255"/>
                            <mxPoint x="340" y="75"/>
                        </Array>
                    </mxGeometry>
                </mxCell>
            </root>
        </mxGraphModel>
    </diagram>
</mxfile>